<svg id="レイヤー_1のコピー" data-name="レイヤー 1のコピー" xmlns="http://www.w3.org/2000/svg" width="32" height="32" viewBox="0 0 32 32">
  <defs>
    <style>
      .cls-1 {
        fill: #4d4d4d;
      }
    </style>
  </defs>
  <title>IconHiDPI</title>
  <path class="cls-1" d="M15.062,9.5a.529.529,0,0,0,0-1L4.794,2.572c-.476-.275-.866-.05-.866.5V14.928c0,.55.39.775.866.5Z"/>
  <g>
    <g>
      <path class="cls-1" d="M6,17.5a1.489,1.489,0,0,1-1.118-.509,2.355,2.355,0,0,0,.663-.265L9.4,14.5h12.35l-1.8,3Z"/>
      <path class="cls-1" d="M20.867,15l-1.2,2H6.072l3.464-2H20.867m1.766-1H9.268L5.294,16.294a1.759,1.759,0,0,1-.885.251,1.518,1.518,0,0,1-.337-.04A2,2,0,0,0,6,18H20.234l2.4-4Z"/>
    </g>
    <g>
      <path class="cls-1" d="M25.729,17.5l.428-2.992A1.5,1.5,0,0,1,26,17.5Z"/>
      <path class="cls-1" d="M26.567,15.177a1,1,0,0,1-.253,1.773l.253-1.773M26,14h-.275l-.571,4H26a2,2,0,0,0,0-4Z"/>
    </g>
    <g>
      <path class="cls-1" d="M25.967,27H26a2,2,0,0,0,2-2,1.978,1.978,0,0,0-.257-.962Z"/>
      <path class="cls-1" d="M27.743,24.038,25.967,27H26a2,2,0,0,0,2-2,1.978,1.978,0,0,0-.257-.962Z"/>
    </g>
    <g>
      <path class="cls-1" d="M6,26.5a1.5,1.5,0,0,1,0-3H18.927a1.326,1.326,0,0,0,.173.049l3.215.644-.33,2.308Z"/>
      <path class="cls-1" d="M18.847,24c.05.015.1.029.153.039l2.752.551-.2,1.41H6a1,1,0,0,1,0-2H18.847m.167-1H6a2,2,0,0,0,0,4H22.418l.458-3.205-3.68-.736A1.376,1.376,0,0,1,19.013,23Z"/>
    </g>
    <g>
      <path class="cls-1" d="M16.854,8.5a2.15,2.15,0,0,0-1.041-1.3L12.866,5.5H26a1.5,1.5,0,0,1,0,3Z"/>
      <path class="cls-1" d="M26,6a1,1,0,0,1,0,2H17.2a2.74,2.74,0,0,0-1.14-1.232L14.733,6H26m0-1H11l4.562,2.634A1.583,1.583,0,0,1,16.419,9H26a2,2,0,0,0,0-4Z"/>
    </g>
  </g>
  <path class="cls-1" d="M24.943,12.4c.031-.218-.036-.242-.149-.053l-5.588,9.314a.264.264,0,0,0,.186.421l4.216.843a.429.429,0,0,1,.336.474L23.057,29.6c-.031.218.036.242.149.053l5.588-9.314a.264.264,0,0,0-.186-.421l-4.216-.843a.429.429,0,0,1-.336-.474Z"/>
</svg>
